<?xml version="1.0" encoding="utf-8"?>
<svg xmlns="http://www.w3.org/2000/svg" xmlns:xlink="http://www.w3.org/1999/xlink" xml:space="preserve" width="1023" height="1023" viewBox="0 0 1023 1023"><rect width="1023" height="1023" fill="#ffffff00" x="0" y="0"/><g fill="#bbceb0">
<g transform="translate(310,62) scale(5.3216666666667)"><path d="M6,6H0V3c0-1.7,1.3-3,3-3l3,0V6z"/></g>
<g transform="translate(341,62) scale(5.3216666666667)"><path d="M3,6H0V0l3,0c1.7,0,3,1.3,3,3v0C6,4.7,4.7,6,3,6z"/></g>
<g transform="translate(403,62) scale(5.3216666666667)"><circle cx="3" cy="3" r="3"/></g>
<g transform="translate(558,62) scale(5.3216666666667)"><path d="M6,6H3C1.3,6,0,4.7,0,3v0c0-1.7,1.3-3,3-3h3C6,0,6,6,6,6z"/></g>
<g transform="translate(589,62) scale(5.3216666666667)"><path d="M3,6H0V0l3,0c1.7,0,3,1.3,3,3v0C6,4.7,4.7,6,3,6z"/></g>
<g transform="translate(310,93) scale(5.3216666666667)"><rect width="6" height="6"/></g>
<g transform="translate(465,93) scale(5.3216666666667)"><path d="M6,6H3C1.3,6,0,4.7,0,3v0c0-1.7,1.3-3,3-3h3C6,0,6,6,6,6z"/></g>
<g transform="translate(496,93) scale(5.3216666666667)"><rect width="6" height="6"/></g>
<g transform="translate(527,93) scale(5.3216666666667)"><path d="M6,6H0V0l3,0c1.7,0,3,1.3,3,3V6z"/></g>
<g transform="translate(682,93) scale(5.3216666666667)"><circle cx="3" cy="3" r="3"/></g>
<g transform="translate(310,124) scale(5.3216666666667)"><path d="M6,6H3C1.3,6,0,4.7,0,3V0l6,0V6z"/></g>
<g transform="translate(341,124) scale(5.3216666666667)"><path d="M6,6H0V0l3,0c1.7,0,3,1.3,3,3V6z"/></g>
<g transform="translate(403,124) scale(5.3216666666667)"><path d="M6,6H0V3c0-1.7,1.3-3,3-3l3,0V6z"/></g>
<g transform="translate(434,124) scale(5.3216666666667)"><path d="M6,6H0V0l3,0c1.7,0,3,1.3,3,3V6z"/></g>
<g transform="translate(527,124) scale(5.3216666666667)"><rect width="6" height="6"/></g>
<g transform="translate(341,155) scale(5.3216666666667)"><rect width="6" height="6"/></g>
<g transform="translate(372,155) scale(5.3216666666667)"><rect width="6" height="6"/></g>
<g transform="translate(403,155) scale(5.3216666666667)"><rect width="6" height="6"/></g>
<g transform="translate(434,155) scale(5.3216666666667)"><rect width="6" height="6"/></g>
<g transform="translate(527,155) scale(5.3216666666667)"><path d="M6,6H3C1.3,6,0,4.7,0,3V0l6,0V6z"/></g>
<g transform="translate(558,155) scale(5.3216666666667)"><rect width="6" height="6"/></g>
<g transform="translate(589,155) scale(5.3216666666667)"><path d="M6,6H0V0l3,0c1.7,0,3,1.3,3,3V6z"/></g>
<g transform="translate(341,186) scale(5.3216666666667)"><rect width="6" height="6"/></g>
<g transform="translate(403,186) scale(5.3216666666667)"><path d="M6,6H3C1.3,6,0,4.7,0,3V0l6,0V6z"/></g>
<g transform="translate(434,186) scale(5.3216666666667)"><rect width="6" height="6"/></g>
<g transform="translate(558,186) scale(5.3216666666667)"><rect width="6" height="6"/></g>
<g transform="translate(589,186) scale(5.3216666666667)"><rect width="6" height="6"/></g>
<g transform="translate(620,186) scale(5.3216666666667)"><rect width="6" height="6"/></g>
<g transform="translate(651,186) scale(5.3216666666667)"><rect width="6" height="6"/></g>
<g transform="translate(682,186) scale(5.3216666666667)"><path d="M3,6H0V0l3,0c1.7,0,3,1.3,3,3v0C6,4.7,4.7,6,3,6z"/></g>
<g transform="translate(310,217) scale(5.3216666666667)"><path d="M6,6H0V3c0-1.7,1.3-3,3-3l3,0V6z"/></g>
<g transform="translate(341,217) scale(5.3216666666667)"><path d="M3,6H0V0l6,0v3C6,4.7,4.7,6,3,6z"/></g>
<g transform="translate(434,217) scale(5.3216666666667)"><rect width="6" height="6"/></g>
<g transform="translate(465,217) scale(5.3216666666667)"><rect width="6" height="6"/></g>
<g transform="translate(496,217) scale(5.3216666666667)"><rect width="6" height="6"/></g>
<g transform="translate(527,217) scale(5.3216666666667)"><rect width="6" height="6"/></g>
<g transform="translate(558,217) scale(5.3216666666667)"><rect width="6" height="6"/></g>
<g transform="translate(589,217) scale(5.3216666666667)"><path d="M3,6H0V0l6,0v3C6,4.7,4.7,6,3,6z"/></g>
<g transform="translate(310,248) scale(5.3216666666667)"><rect width="6" height="6"/></g>
<g transform="translate(372,248) scale(5.3216666666667)"><path d="M6,6H0V3c0-1.7,1.3-3,3-3h0c1.7,0,3,1.3,3,3V6z"/></g>
<g transform="translate(434,248) scale(5.3216666666667)"><rect width="6" height="6"/></g>
<g transform="translate(496,248) scale(5.3216666666667)"><rect width="6" height="6"/></g>
<g transform="translate(558,248) scale(5.3216666666667)"><rect width="6" height="6"/></g>
<g transform="translate(620,248) scale(5.3216666666667)"><path d="M6,6H0V3c0-1.7,1.3-3,3-3h0c1.7,0,3,1.3,3,3V6z"/></g>
<g transform="translate(682,248) scale(5.3216666666667)"><path d="M6,6H0V3c0-1.7,1.3-3,3-3h0c1.7,0,3,1.3,3,3V6z"/></g>
<g transform="translate(310,279) scale(5.3216666666667)"><rect width="6" height="6"/></g>
<g transform="translate(372,279) scale(5.3216666666667)"><rect width="6" height="6"/></g>
<g transform="translate(434,279) scale(5.3216666666667)"><rect width="6" height="6"/></g>
<g transform="translate(465,279) scale(5.3216666666667)"><rect width="6" height="6"/></g>
<g transform="translate(496,279) scale(5.3216666666667)"><rect width="6" height="6"/></g>
<g transform="translate(558,279) scale(5.3216666666667)"><path d="M6,6H3C1.3,6,0,4.7,0,3V0l6,0V6z"/></g>
<g transform="translate(589,279) scale(5.3216666666667)"><rect width="6" height="6"/></g>
<g transform="translate(620,279) scale(5.3216666666667)"><rect width="6" height="6"/></g>
<g transform="translate(651,279) scale(5.3216666666667)"><rect width="6" height="6"/></g>
<g transform="translate(682,279) scale(5.3216666666667)"><path d="M3,6H0V0l6,0v3C6,4.7,4.7,6,3,6z"/></g>
<g transform="translate(124,310) scale(5.3216666666667)"><path d="M6,6H3C1.3,6,0,4.7,0,3v0c0-1.7,1.3-3,3-3h3C6,0,6,6,6,6z"/></g>
<g transform="translate(155,310) scale(5.3216666666667)"><rect width="6" height="6"/></g>
<g transform="translate(186,310) scale(5.3216666666667)"><path d="M3,6H0V0l3,0c1.7,0,3,1.3,3,3v0C6,4.7,4.7,6,3,6z"/></g>
<g transform="translate(248,310) scale(5.3216666666667)"><circle cx="3" cy="3" r="3"/></g>
<g transform="translate(310,310) scale(5.3216666666667)"><path d="M3,6L3,6C1.3,6,0,4.7,0,3V0h6v3C6,4.7,4.7,6,3,6z"/></g>
<g transform="translate(372,310) scale(5.3216666666667)"><rect width="6" height="6"/></g>
<g transform="translate(434,310) scale(5.3216666666667)"><rect width="6" height="6"/></g>
<g transform="translate(496,310) scale(5.3216666666667)"><path d="M3,6L3,6C1.3,6,0,4.7,0,3V0h6v3C6,4.7,4.7,6,3,6z"/></g>
<g transform="translate(651,310) scale(5.3216666666667)"><path d="M3,6L3,6C1.3,6,0,4.7,0,3V0h6v3C6,4.7,4.7,6,3,6z"/></g>
<g transform="translate(713,310) scale(5.3216666666667)"><path d="M6,6H3C1.3,6,0,4.7,0,3v0c0-1.7,1.3-3,3-3h3C6,0,6,6,6,6z"/></g>
<g transform="translate(744,310) scale(5.3216666666667)"><rect width="6" height="6"/></g>
<g transform="translate(775,310) scale(5.3216666666667)"><path d="M6,6H0V0l3,0c1.7,0,3,1.3,3,3V6z"/></g>
<g transform="translate(868,310) scale(5.3216666666667)"><path d="M6,6H0V3c0-1.7,1.3-3,3-3l3,0V6z"/></g>
<g transform="translate(899,310) scale(5.3216666666667)"><rect width="6" height="6"/></g>
<g transform="translate(930,310) scale(5.3216666666667)"><path d="M6,6H0V0l3,0c1.7,0,3,1.3,3,3V6z"/></g>
<g transform="translate(217,341) scale(5.3216666666667)"><circle cx="3" cy="3" r="3"/></g>
<g transform="translate(372,341) scale(5.3216666666667)"><rect width="6" height="6"/></g>
<g transform="translate(403,341) scale(5.3216666666667)"><rect width="6" height="6"/></g>
<g transform="translate(434,341) scale(5.3216666666667)"><rect width="6" height="6"/></g>
<g transform="translate(465,341) scale(5.3216666666667)"><path d="M3,6H0V0l3,0c1.7,0,3,1.3,3,3v0C6,4.7,4.7,6,3,6z"/></g>
<g transform="translate(527,341) scale(5.3216666666667)"><path d="M6,6H0V3c0-1.7,1.3-3,3-3h0c1.7,0,3,1.3,3,3V6z"/></g>
<g transform="translate(589,341) scale(5.3216666666667)"><path d="M6,6H0V3c0-1.7,1.3-3,3-3l3,0V6z"/></g>
<g transform="translate(620,341) scale(5.3216666666667)"><path d="M3,6H0V0l3,0c1.7,0,3,1.3,3,3v0C6,4.7,4.7,6,3,6z"/></g>
<g transform="translate(682,341) scale(5.3216666666667)"><circle cx="3" cy="3" r="3"/></g>
<g transform="translate(744,341) scale(5.3216666666667)"><rect width="6" height="6"/></g>
<g transform="translate(775,341) scale(5.3216666666667)"><rect width="6" height="6"/></g>
<g transform="translate(806,341) scale(5.3216666666667)"><path d="M3,6H0V0l3,0c1.7,0,3,1.3,3,3v0C6,4.7,4.7,6,3,6z"/></g>
<g transform="translate(868,341) scale(5.3216666666667)"><path d="M3,6L3,6C1.3,6,0,4.7,0,3V0h6v3C6,4.7,4.7,6,3,6z"/></g>
<g transform="translate(930,341) scale(5.3216666666667)"><path d="M3,6L3,6C1.3,6,0,4.7,0,3V0h6v3C6,4.7,4.7,6,3,6z"/></g>
<g transform="translate(62,372) scale(5.3216666666667)"><circle cx="3" cy="3" r="3"/></g>
<g transform="translate(124,372) scale(5.3216666666667)"><path d="M6,6H0V3c0-1.7,1.3-3,3-3l3,0V6z"/></g>
<g transform="translate(155,372) scale(5.3216666666667)"><path d="M3,6H0V0l3,0c1.7,0,3,1.3,3,3v0C6,4.7,4.7,6,3,6z"/></g>
<g transform="translate(248,372) scale(5.3216666666667)"><circle cx="3" cy="3" r="3"/></g>
<g transform="translate(372,372) scale(5.3216666666667)"><path d="M6,6H3C1.3,6,0,4.7,0,3V0l6,0V6z"/></g>
<g transform="translate(403,372) scale(5.3216666666667)"><rect width="6" height="6"/></g>
<g transform="translate(434,372) scale(5.3216666666667)"><path d="M3,6H0V0l6,0v3C6,4.7,4.7,6,3,6z"/></g>
<g transform="translate(527,372) scale(5.3216666666667)"><path d="M3,6L3,6C1.3,6,0,4.7,0,3V0h6v3C6,4.7,4.7,6,3,6z"/></g>
<g transform="translate(589,372) scale(5.3216666666667)"><path d="M3,6L3,6C1.3,6,0,4.7,0,3V0h6v3C6,4.7,4.7,6,3,6z"/></g>
<g transform="translate(651,372) scale(5.3216666666667)"><path d="M6,6H0V3c0-1.7,1.3-3,3-3h0c1.7,0,3,1.3,3,3V6z"/></g>
<g transform="translate(713,372) scale(5.3216666666667)"><path d="M6,6H0V3c0-1.7,1.3-3,3-3l3,0V6z"/></g>
<g transform="translate(744,372) scale(5.3216666666667)"><rect width="6" height="6"/></g>
<g transform="translate(775,372) scale(5.3216666666667)"><rect width="6" height="6"/></g>
<g transform="translate(837,372) scale(5.3216666666667)"><path d="M6,6H0V3c0-1.7,1.3-3,3-3h0c1.7,0,3,1.3,3,3V6z"/></g>
<g transform="translate(93,403) scale(5.3216666666667)"><path d="M6,6H0V3c0-1.7,1.3-3,3-3l3,0V6z"/></g>
<g transform="translate(124,403) scale(5.3216666666667)"><rect width="6" height="6"/></g>
<g transform="translate(186,403) scale(5.3216666666667)"><path d="M6,6H3C1.3,6,0,4.7,0,3v0c0-1.7,1.3-3,3-3h3C6,0,6,6,6,6z"/></g>
<g transform="translate(217,403) scale(5.3216666666667)"><path d="M6,6H0V0l3,0c1.7,0,3,1.3,3,3V6z"/></g>
<g transform="translate(403,403) scale(5.3216666666667)"><path d="M3,6L3,6C1.3,6,0,4.7,0,3V0h6v3C6,4.7,4.7,6,3,6z"/></g>
<g transform="translate(465,403) scale(5.3216666666667)"><path d="M6,6H0V3c0-1.7,1.3-3,3-3l3,0V6z"/></g>
<g transform="translate(496,403) scale(5.3216666666667)"><path d="M3,6H0V0l3,0c1.7,0,3,1.3,3,3v0C6,4.7,4.7,6,3,6z"/></g>
<g transform="translate(651,403) scale(5.3216666666667)"><rect width="6" height="6"/></g>
<g transform="translate(682,403) scale(5.3216666666667)"><rect width="6" height="6"/></g>
<g transform="translate(713,403) scale(5.3216666666667)"><rect width="6" height="6"/></g>
<g transform="translate(744,403) scale(5.3216666666667)"><rect width="6" height="6"/></g>
<g transform="translate(775,403) scale(5.3216666666667)"><rect width="6" height="6"/></g>
<g transform="translate(837,403) scale(5.3216666666667)"><path d="M3,6L3,6C1.3,6,0,4.7,0,3V0h6v3C6,4.7,4.7,6,3,6z"/></g>
<g transform="translate(899,403) scale(5.3216666666667)"><path d="M6,6H0V3c0-1.7,1.3-3,3-3h0c1.7,0,3,1.3,3,3V6z"/></g>
<g transform="translate(93,434) scale(5.3216666666667)"><path d="M6,6H3C1.3,6,0,4.7,0,3V0l6,0V6z"/></g>
<g transform="translate(124,434) scale(5.3216666666667)"><rect width="6" height="6"/></g>
<g transform="translate(155,434) scale(5.3216666666667)"><path d="M3,6H0V0l3,0c1.7,0,3,1.3,3,3v0C6,4.7,4.7,6,3,6z"/></g>
<g transform="translate(217,434) scale(5.3216666666667)"><path d="M6,6H3C1.3,6,0,4.7,0,3V0l6,0V6z"/></g>
<g transform="translate(248,434) scale(5.3216666666667)"><path d="M3,6H0V0l3,0c1.7,0,3,1.3,3,3v0C6,4.7,4.7,6,3,6z"/></g>
<g transform="translate(310,434) scale(5.3216666666667)"><path d="M6,6H3C1.3,6,0,4.7,0,3v0c0-1.7,1.3-3,3-3h3C6,0,6,6,6,6z"/></g>
<g transform="translate(341,434) scale(5.3216666666667)"><rect width="6" height="6"/></g>
<g transform="translate(372,434) scale(5.3216666666667)"><path d="M3,6H0V0l3,0c1.7,0,3,1.3,3,3v0C6,4.7,4.7,6,3,6z"/></g>
<g transform="translate(465,434) scale(5.3216666666667)"><path d="M3,6L3,6C1.3,6,0,4.7,0,3V0h6v3C6,4.7,4.7,6,3,6z"/></g>
<g transform="translate(589,434) scale(5.3216666666667)"><circle cx="3" cy="3" r="3"/></g>
<g transform="translate(651,434) scale(5.3216666666667)"><rect width="6" height="6"/></g>
<g transform="translate(713,434) scale(5.3216666666667)"><rect width="6" height="6"/></g>
<g transform="translate(775,434) scale(5.3216666666667)"><path d="M3,6L3,6C1.3,6,0,4.7,0,3V0h6v3C6,4.7,4.7,6,3,6z"/></g>
<g transform="translate(868,434) scale(5.3216666666667)"><path d="M6,6H3C1.3,6,0,4.7,0,3v0c0-1.7,1.3-3,3-3h3C6,0,6,6,6,6z"/></g>
<g transform="translate(899,434) scale(5.3216666666667)"><rect width="6" height="6"/></g>
<g transform="translate(930,434) scale(5.3216666666667)"><path d="M6,6H0V0l3,0c1.7,0,3,1.3,3,3V6z"/></g>
<g transform="translate(62,465) scale(5.3216666666667)"><path d="M6,6H0V3c0-1.7,1.3-3,3-3h0c1.7,0,3,1.3,3,3V6z"/></g>
<g transform="translate(124,465) scale(5.3216666666667)"><rect width="6" height="6"/></g>
<g transform="translate(186,465) scale(5.3216666666667)"><path d="M6,6H0V3c0-1.7,1.3-3,3-3h0c1.7,0,3,1.3,3,3V6z"/></g>
<g transform="translate(279,465) scale(5.3216666666667)"><path d="M6,6H0V3c0-1.7,1.3-3,3-3h0c1.7,0,3,1.3,3,3V6z"/></g>
<g transform="translate(403,465) scale(5.3216666666667)"><path d="M6,6H0V3c0-1.7,1.3-3,3-3l3,0V6z"/></g>
<g transform="translate(434,465) scale(5.3216666666667)"><path d="M3,6H0V0l3,0c1.7,0,3,1.3,3,3v0C6,4.7,4.7,6,3,6z"/></g>
<g transform="translate(496,465) scale(5.3216666666667)"><path d="M6,6H0V3c0-1.7,1.3-3,3-3h0c1.7,0,3,1.3,3,3V6z"/></g>
<g transform="translate(558,465) scale(5.3216666666667)"><circle cx="3" cy="3" r="3"/></g>
<g transform="translate(651,465) scale(5.3216666666667)"><path d="M3,6L3,6C1.3,6,0,4.7,0,3V0h6v3C6,4.7,4.7,6,3,6z"/></g>
<g transform="translate(713,465) scale(5.3216666666667)"><path d="M6,6H3C1.3,6,0,4.7,0,3V0l6,0V6z"/></g>
<g transform="translate(744,465) scale(5.3216666666667)"><path d="M3,6H0V0l3,0c1.7,0,3,1.3,3,3v0C6,4.7,4.7,6,3,6z"/></g>
<g transform="translate(806,465) scale(5.3216666666667)"><path d="M6,6H3C1.3,6,0,4.7,0,3v0c0-1.7,1.3-3,3-3h3C6,0,6,6,6,6z"/></g>
<g transform="translate(837,465) scale(5.3216666666667)"><path d="M3,6H0V0l3,0c1.7,0,3,1.3,3,3v0C6,4.7,4.7,6,3,6z"/></g>
<g transform="translate(899,465) scale(5.3216666666667)"><path d="M6,6H3C1.3,6,0,4.7,0,3V0l6,0V6z"/></g>
<g transform="translate(930,465) scale(5.3216666666667)"><path d="M3,6H0V0l6,0v3C6,4.7,4.7,6,3,6z"/></g>
<g transform="translate(62,496) scale(5.3216666666667)"><rect width="6" height="6"/></g>
<g transform="translate(124,496) scale(5.3216666666667)"><path d="M3,6L3,6C1.3,6,0,4.7,0,3V0h6v3C6,4.7,4.7,6,3,6z"/></g>
<g transform="translate(186,496) scale(5.3216666666667)"><path d="M6,6H3C1.3,6,0,4.7,0,3V0l6,0V6z"/></g>
<g transform="translate(217,496) scale(5.3216666666667)"><rect width="6" height="6"/></g>
<g transform="translate(248,496) scale(5.3216666666667)"><rect width="6" height="6"/></g>
<g transform="translate(279,496) scale(5.3216666666667)"><rect width="6" height="6"/></g>
<g transform="translate(310,496) scale(5.3216666666667)"><path d="M6,6H0V0l3,0c1.7,0,3,1.3,3,3V6z"/></g>
<g transform="translate(403,496) scale(5.3216666666667)"><rect width="6" height="6"/></g>
<g transform="translate(496,496) scale(5.3216666666667)"><rect width="6" height="6"/></g>
<g transform="translate(589,496) scale(5.3216666666667)"><path d="M6,6H3C1.3,6,0,4.7,0,3v0c0-1.7,1.3-3,3-3h3C6,0,6,6,6,6z"/></g>
<g transform="translate(620,496) scale(5.3216666666667)"><path d="M6,6H0V0l3,0c1.7,0,3,1.3,3,3V6z"/></g>
<g transform="translate(775,496) scale(5.3216666666667)"><circle cx="3" cy="3" r="3"/></g>
<g transform="translate(62,527) scale(5.3216666666667)"><rect width="6" height="6"/></g>
<g transform="translate(217,527) scale(5.3216666666667)"><rect width="6" height="6"/></g>
<g transform="translate(279,527) scale(5.3216666666667)"><path d="M6,6H3C1.3,6,0,4.7,0,3V0l6,0V6z"/></g>
<g transform="translate(310,527) scale(5.3216666666667)"><path d="M3,6H0V0l6,0v3C6,4.7,4.7,6,3,6z"/></g>
<g transform="translate(372,527) scale(5.3216666666667)"><path d="M6,6H0V3c0-1.7,1.3-3,3-3l3,0V6z"/></g>
<g transform="translate(403,527) scale(5.3216666666667)"><rect width="6" height="6"/></g>
<g transform="translate(465,527) scale(5.3216666666667)"><path d="M6,6H3C1.3,6,0,4.7,0,3v0c0-1.7,1.3-3,3-3h3C6,0,6,6,6,6z"/></g>
<g transform="translate(496,527) scale(5.3216666666667)"><rect width="6" height="6"/></g>
<g transform="translate(527,527) scale(5.3216666666667)"><path d="M6,6H0V0l3,0c1.7,0,3,1.3,3,3V6z"/></g>
<g transform="translate(620,527) scale(5.3216666666667)"><path d="M3,6L3,6C1.3,6,0,4.7,0,3V0h6v3C6,4.7,4.7,6,3,6z"/></g>
<g transform="translate(682,527) scale(5.3216666666667)"><path d="M6,6H3C1.3,6,0,4.7,0,3v0c0-1.7,1.3-3,3-3h3C6,0,6,6,6,6z"/></g>
<g transform="translate(713,527) scale(5.3216666666667)"><path d="M3,6H0V0l3,0c1.7,0,3,1.3,3,3v0C6,4.7,4.7,6,3,6z"/></g>
<g transform="translate(806,527) scale(5.3216666666667)"><path d="M6,6H0V3c0-1.7,1.3-3,3-3l3,0V6z"/></g>
<g transform="translate(837,527) scale(5.3216666666667)"><path d="M6,6H0V0l3,0c1.7,0,3,1.3,3,3V6z"/></g>
<g transform="translate(930,527) scale(5.3216666666667)"><path d="M6,6H0V3c0-1.7,1.3-3,3-3h0c1.7,0,3,1.3,3,3V6z"/></g>
<g transform="translate(62,558) scale(5.3216666666667)"><rect width="6" height="6"/></g>
<g transform="translate(217,558) scale(5.3216666666667)"><rect width="6" height="6"/></g>
<g transform="translate(248,558) scale(5.3216666666667)"><path d="M3,6H0V0l3,0c1.7,0,3,1.3,3,3v0C6,4.7,4.7,6,3,6z"/></g>
<g transform="translate(341,558) scale(5.3216666666667)"><path d="M6,6H3C1.3,6,0,4.7,0,3v0c0-1.7,1.3-3,3-3h3C6,0,6,6,6,6z"/></g>
<g transform="translate(372,558) scale(5.3216666666667)"><rect width="6" height="6"/></g>
<g transform="translate(403,558) scale(5.3216666666667)"><rect width="6" height="6"/></g>
<g transform="translate(496,558) scale(5.3216666666667)"><rect width="6" height="6"/></g>
<g transform="translate(527,558) scale(5.3216666666667)"><rect width="6" height="6"/></g>
<g transform="translate(558,558) scale(5.3216666666667)"><path d="M6,6H0V0l3,0c1.7,0,3,1.3,3,3V6z"/></g>
<g transform="translate(775,558) scale(5.3216666666667)"><path d="M6,6H0V3c0-1.7,1.3-3,3-3l3,0V6z"/></g>
<g transform="translate(806,558) scale(5.3216666666667)"><rect width="6" height="6"/></g>
<g transform="translate(837,558) scale(5.3216666666667)"><rect width="6" height="6"/></g>
<g transform="translate(868,558) scale(5.3216666666667)"><path d="M6,6H0V0l3,0c1.7,0,3,1.3,3,3V6z"/></g>
<g transform="translate(930,558) scale(5.3216666666667)"><rect width="6" height="6"/></g>
<g transform="translate(62,589) scale(5.3216666666667)"><rect width="6" height="6"/></g>
<g transform="translate(93,589) scale(5.3216666666667)"><path d="M3,6H0V0l3,0c1.7,0,3,1.3,3,3v0C6,4.7,4.7,6,3,6z"/></g>
<g transform="translate(155,589) scale(5.3216666666667)"><path d="M6,6H3C1.3,6,0,4.7,0,3v0c0-1.7,1.3-3,3-3h3C6,0,6,6,6,6z"/></g>
<g transform="translate(186,589) scale(5.3216666666667)"><rect width="6" height="6"/></g>
<g transform="translate(217,589) scale(5.3216666666667)"><path d="M3,6H0V0l6,0v3C6,4.7,4.7,6,3,6z"/></g>
<g transform="translate(372,589) scale(5.3216666666667)"><path d="M6,6H3C1.3,6,0,4.7,0,3V0l6,0V6z"/></g>
<g transform="translate(403,589) scale(5.3216666666667)"><path d="M3,6H0V0l6,0v3C6,4.7,4.7,6,3,6z"/></g>
<g transform="translate(496,589) scale(5.3216666666667)"><path d="M3,6L3,6C1.3,6,0,4.7,0,3V0h6v3C6,4.7,4.7,6,3,6z"/></g>
<g transform="translate(558,589) scale(5.3216666666667)"><path d="M6,6H3C1.3,6,0,4.7,0,3V0l6,0V6z"/></g>
<g transform="translate(589,589) scale(5.3216666666667)"><path d="M6,6H0V0l3,0c1.7,0,3,1.3,3,3V6z"/></g>
<g transform="translate(713,589) scale(5.3216666666667)"><path d="M6,6H3C1.3,6,0,4.7,0,3v0c0-1.7,1.3-3,3-3h3C6,0,6,6,6,6z"/></g>
<g transform="translate(744,589) scale(5.3216666666667)"><rect width="6" height="6"/></g>
<g transform="translate(775,589) scale(5.3216666666667)"><rect width="6" height="6"/></g>
<g transform="translate(806,589) scale(5.3216666666667)"><rect width="6" height="6"/></g>
<g transform="translate(837,589) scale(5.3216666666667)"><rect width="6" height="6"/></g>
<g transform="translate(868,589) scale(5.3216666666667)"><rect width="6" height="6"/></g>
<g transform="translate(899,589) scale(5.3216666666667)"><rect width="6" height="6"/></g>
<g transform="translate(930,589) scale(5.3216666666667)"><path d="M3,6H0V0l6,0v3C6,4.7,4.7,6,3,6z"/></g>
<g transform="translate(62,620) scale(5.3216666666667)"><rect width="6" height="6"/></g>
<g transform="translate(124,620) scale(5.3216666666667)"><path d="M6,6H0V3c0-1.7,1.3-3,3-3h0c1.7,0,3,1.3,3,3V6z"/></g>
<g transform="translate(186,620) scale(5.3216666666667)"><rect width="6" height="6"/></g>
<g transform="translate(248,620) scale(5.3216666666667)"><circle cx="3" cy="3" r="3"/></g>
<g transform="translate(310,620) scale(5.3216666666667)"><circle cx="3" cy="3" r="3"/></g>
<g transform="translate(527,620) scale(5.3216666666667)"><path d="M6,6H0V3c0-1.7,1.3-3,3-3h0c1.7,0,3,1.3,3,3V6z"/></g>
<g transform="translate(589,620) scale(5.3216666666667)"><rect width="6" height="6"/></g>
<g transform="translate(744,620) scale(5.3216666666667)"><rect width="6" height="6"/></g>
<g transform="translate(806,620) scale(5.3216666666667)"><path d="M3,6L3,6C1.3,6,0,4.7,0,3V0h6v3C6,4.7,4.7,6,3,6z"/></g>
<g transform="translate(868,620) scale(5.3216666666667)"><path d="M3,6L3,6C1.3,6,0,4.7,0,3V0h6v3C6,4.7,4.7,6,3,6z"/></g>
<g transform="translate(62,651) scale(5.3216666666667)"><rect width="6" height="6"/></g>
<g transform="translate(124,651) scale(5.3216666666667)"><path d="M3,6L3,6C1.3,6,0,4.7,0,3V0h6v3C6,4.7,4.7,6,3,6z"/></g>
<g transform="translate(186,651) scale(5.3216666666667)"><path d="M3,6L3,6C1.3,6,0,4.7,0,3V0h6v3C6,4.7,4.7,6,3,6z"/></g>
<g transform="translate(341,651) scale(5.3216666666667)"><circle cx="3" cy="3" r="3"/></g>
<g transform="translate(465,651) scale(5.3216666666667)"><path d="M6,6H3C1.3,6,0,4.7,0,3v0c0-1.7,1.3-3,3-3h3C6,0,6,6,6,6z"/></g>
<g transform="translate(496,651) scale(5.3216666666667)"><rect width="6" height="6"/></g>
<g transform="translate(527,651) scale(5.3216666666667)"><rect width="6" height="6"/></g>
<g transform="translate(558,651) scale(5.3216666666667)"><rect width="6" height="6"/></g>
<g transform="translate(589,651) scale(5.3216666666667)"><rect width="6" height="6"/></g>
<g transform="translate(651,651) scale(5.3216666666667)"><path d="M6,6H0V3c0-1.7,1.3-3,3-3l3,0V6z"/></g>
<g transform="translate(682,651) scale(5.3216666666667)"><path d="M6,6H0V0l3,0c1.7,0,3,1.3,3,3V6z"/></g>
<g transform="translate(744,651) scale(5.3216666666667)"><rect width="6" height="6"/></g>
<g transform="translate(837,651) scale(5.3216666666667)"><circle cx="3" cy="3" r="3"/></g>
<g transform="translate(62,682) scale(5.3216666666667)"><path d="M3,6L3,6C1.3,6,0,4.7,0,3V0h6v3C6,4.7,4.7,6,3,6z"/></g>
<g transform="translate(248,682) scale(5.3216666666667)"><circle cx="3" cy="3" r="3"/></g>
<g transform="translate(310,682) scale(5.3216666666667)"><path d="M6,6H0V3c0-1.7,1.3-3,3-3h0c1.7,0,3,1.3,3,3V6z"/></g>
<g transform="translate(527,682) scale(5.3216666666667)"><rect width="6" height="6"/></g>
<g transform="translate(589,682) scale(5.3216666666667)"><rect width="6" height="6"/></g>
<g transform="translate(620,682) scale(5.3216666666667)"><rect width="6" height="6"/></g>
<g transform="translate(651,682) scale(5.3216666666667)"><rect width="6" height="6"/></g>
<g transform="translate(682,682) scale(5.3216666666667)"><rect width="6" height="6"/></g>
<g transform="translate(713,682) scale(5.3216666666667)"><rect width="6" height="6"/></g>
<g transform="translate(744,682) scale(5.3216666666667)"><rect width="6" height="6"/></g>
<g transform="translate(775,682) scale(5.3216666666667)"><rect width="6" height="6"/></g>
<g transform="translate(806,682) scale(5.3216666666667)"><path d="M6,6H0V0l3,0c1.7,0,3,1.3,3,3V6z"/></g>
<g transform="translate(868,682) scale(5.3216666666667)"><circle cx="3" cy="3" r="3"/></g>
<g transform="translate(310,713) scale(5.3216666666667)"><path d="M6,6H3C1.3,6,0,4.7,0,3V0l6,0V6z"/></g>
<g transform="translate(341,713) scale(5.3216666666667)"><path d="M3,6H0V0l3,0c1.7,0,3,1.3,3,3v0C6,4.7,4.7,6,3,6z"/></g>
<g transform="translate(403,713) scale(5.3216666666667)"><path d="M6,6H0V3c0-1.7,1.3-3,3-3h0c1.7,0,3,1.3,3,3V6z"/></g>
<g transform="translate(527,713) scale(5.3216666666667)"><path d="M6,6H3C1.3,6,0,4.7,0,3V0l6,0V6z"/></g>
<g transform="translate(558,713) scale(5.3216666666667)"><rect width="6" height="6"/></g>
<g transform="translate(589,713) scale(5.3216666666667)"><rect width="6" height="6"/></g>
<g transform="translate(651,713) scale(5.3216666666667)"><rect width="6" height="6"/></g>
<g transform="translate(682,713) scale(5.3216666666667)"><rect width="6" height="6"/></g>
<g transform="translate(806,713) scale(5.3216666666667)"><rect width="6" height="6"/></g>
<g transform="translate(837,713) scale(5.3216666666667)"><path d="M3,6H0V0l3,0c1.7,0,3,1.3,3,3v0C6,4.7,4.7,6,3,6z"/></g>
<g transform="translate(899,713) scale(5.3216666666667)"><path d="M6,6H0V3c0-1.7,1.3-3,3-3l3,0V6z"/></g>
<g transform="translate(930,713) scale(5.3216666666667)"><path d="M3,6H0V0l3,0c1.7,0,3,1.3,3,3v0C6,4.7,4.7,6,3,6z"/></g>
<g transform="translate(372,744) scale(5.3216666666667)"><path d="M6,6H3C1.3,6,0,4.7,0,3v0c0-1.7,1.3-3,3-3h3C6,0,6,6,6,6z"/></g>
<g transform="translate(403,744) scale(5.3216666666667)"><rect width="6" height="6"/></g>
<g transform="translate(434,744) scale(5.3216666666667)"><path d="M3,6H0V0l3,0c1.7,0,3,1.3,3,3v0C6,4.7,4.7,6,3,6z"/></g>
<g transform="translate(496,744) scale(5.3216666666667)"><circle cx="3" cy="3" r="3"/></g>
<g transform="translate(589,744) scale(5.3216666666667)"><path d="M6,6H3C1.3,6,0,4.7,0,3V0l6,0V6z"/></g>
<g transform="translate(620,744) scale(5.3216666666667)"><rect width="6" height="6"/></g>
<g transform="translate(651,744) scale(5.3216666666667)"><rect width="6" height="6"/></g>
<g transform="translate(682,744) scale(5.3216666666667)"><rect width="6" height="6"/></g>
<g transform="translate(744,744) scale(5.3216666666667)"><circle cx="3" cy="3" r="3"/></g>
<g transform="translate(806,744) scale(5.3216666666667)"><rect width="6" height="6"/></g>
<g transform="translate(899,744) scale(5.3216666666667)"><path d="M3,6L3,6C1.3,6,0,4.7,0,3V0h6v3C6,4.7,4.7,6,3,6z"/></g>
<g transform="translate(341,775) scale(5.3216666666667)"><path d="M6,6H0V3c0-1.7,1.3-3,3-3h0c1.7,0,3,1.3,3,3V6z"/></g>
<g transform="translate(403,775) scale(5.3216666666667)"><rect width="6" height="6"/></g>
<g transform="translate(527,775) scale(5.3216666666667)"><path d="M6,6H0V3c0-1.7,1.3-3,3-3h0c1.7,0,3,1.3,3,3V6z"/></g>
<g transform="translate(651,775) scale(5.3216666666667)"><path d="M6,6H3C1.3,6,0,4.7,0,3V0l6,0V6z"/></g>
<g transform="translate(682,775) scale(5.3216666666667)"><rect width="6" height="6"/></g>
<g transform="translate(806,775) scale(5.3216666666667)"><rect width="6" height="6"/></g>
<g transform="translate(837,775) scale(5.3216666666667)"><path d="M6,6H0V0l3,0c1.7,0,3,1.3,3,3V6z"/></g>
<g transform="translate(310,806) scale(5.3216666666667)"><path d="M6,6H0V3c0-1.7,1.3-3,3-3l3,0V6z"/></g>
<g transform="translate(341,806) scale(5.3216666666667)"><rect width="6" height="6"/></g>
<g transform="translate(372,806) scale(5.3216666666667)"><rect width="6" height="6"/></g>
<g transform="translate(403,806) scale(5.3216666666667)"><rect width="6" height="6"/></g>
<g transform="translate(434,806) scale(5.3216666666667)"><path d="M3,6H0V0l3,0c1.7,0,3,1.3,3,3v0C6,4.7,4.7,6,3,6z"/></g>
<g transform="translate(527,806) scale(5.3216666666667)"><rect width="6" height="6"/></g>
<g transform="translate(558,806) scale(5.3216666666667)"><rect width="6" height="6"/></g>
<g transform="translate(589,806) scale(5.3216666666667)"><rect width="6" height="6"/></g>
<g transform="translate(620,806) scale(5.3216666666667)"><path d="M3,6H0V0l3,0c1.7,0,3,1.3,3,3v0C6,4.7,4.7,6,3,6z"/></g>
<g transform="translate(682,806) scale(5.3216666666667)"><rect width="6" height="6"/></g>
<g transform="translate(713,806) scale(5.3216666666667)"><rect width="6" height="6"/></g>
<g transform="translate(744,806) scale(5.3216666666667)"><rect width="6" height="6"/></g>
<g transform="translate(775,806) scale(5.3216666666667)"><rect width="6" height="6"/></g>
<g transform="translate(806,806) scale(5.3216666666667)"><rect width="6" height="6"/></g>
<g transform="translate(837,806) scale(5.3216666666667)"><rect width="6" height="6"/></g>
<g transform="translate(868,806) scale(5.3216666666667)"><path d="M3,6H0V0l3,0c1.7,0,3,1.3,3,3v0C6,4.7,4.7,6,3,6z"/></g>
<g transform="translate(310,837) scale(5.3216666666667)"><rect width="6" height="6"/></g>
<g transform="translate(403,837) scale(5.3216666666667)"><rect width="6" height="6"/></g>
<g transform="translate(496,837) scale(5.3216666666667)"><path d="M6,6H0V3c0-1.7,1.3-3,3-3l3,0V6z"/></g>
<g transform="translate(527,837) scale(5.3216666666667)"><rect width="6" height="6"/></g>
<g transform="translate(558,837) scale(5.3216666666667)"><rect width="6" height="6"/></g>
<g transform="translate(589,837) scale(5.3216666666667)"><rect width="6" height="6"/></g>
<g transform="translate(651,837) scale(5.3216666666667)"><path d="M6,6H0V3c0-1.7,1.3-3,3-3l3,0V6z"/></g>
<g transform="translate(682,837) scale(5.3216666666667)"><rect width="6" height="6"/></g>
<g transform="translate(713,837) scale(5.3216666666667)"><rect width="6" height="6"/></g>
<g transform="translate(775,837) scale(5.3216666666667)"><rect width="6" height="6"/></g>
<g transform="translate(310,868) scale(5.3216666666667)"><path d="M6,6H3C1.3,6,0,4.7,0,3V0l6,0V6z"/></g>
<g transform="translate(341,868) scale(5.3216666666667)"><path d="M3,6H0V0l3,0c1.7,0,3,1.3,3,3v0C6,4.7,4.7,6,3,6z"/></g>
<g transform="translate(403,868) scale(5.3216666666667)"><path d="M3,6L3,6C1.3,6,0,4.7,0,3V0h6v3C6,4.7,4.7,6,3,6z"/></g>
<g transform="translate(465,868) scale(5.3216666666667)"><path d="M6,6H3C1.3,6,0,4.7,0,3v0c0-1.7,1.3-3,3-3h3C6,0,6,6,6,6z"/></g>
<g transform="translate(496,868) scale(5.3216666666667)"><rect width="6" height="6"/></g>
<g transform="translate(527,868) scale(5.3216666666667)"><path d="M3,6H0V0l6,0v3C6,4.7,4.7,6,3,6z"/></g>
<g transform="translate(589,868) scale(5.3216666666667)"><path d="M3,6L3,6C1.3,6,0,4.7,0,3V0h6v3C6,4.7,4.7,6,3,6z"/></g>
<g transform="translate(651,868) scale(5.3216666666667)"><path d="M6,6H3C1.3,6,0,4.7,0,3V0l6,0V6z"/></g>
<g transform="translate(682,868) scale(5.3216666666667)"><rect width="6" height="6"/></g>
<g transform="translate(713,868) scale(5.3216666666667)"><rect width="6" height="6"/></g>
<g transform="translate(744,868) scale(5.3216666666667)"><rect width="6" height="6"/></g>
<g transform="translate(775,868) scale(5.3216666666667)"><rect width="6" height="6"/></g>
<g transform="translate(806,868) scale(5.3216666666667)"><rect width="6" height="6"/></g>
<g transform="translate(837,868) scale(5.3216666666667)"><rect width="6" height="6"/></g>
<g transform="translate(868,868) scale(5.3216666666667)"><rect width="6" height="6"/></g>
<g transform="translate(899,868) scale(5.3216666666667)"><path d="M6,6H0V0l3,0c1.7,0,3,1.3,3,3V6z"/></g>
<g transform="translate(372,899) scale(5.3216666666667)"><path d="M6,6H0V3c0-1.7,1.3-3,3-3h0c1.7,0,3,1.3,3,3V6z"/></g>
<g transform="translate(620,899) scale(5.3216666666667)"><path d="M6,6H0V3c0-1.7,1.3-3,3-3h0c1.7,0,3,1.3,3,3V6z"/></g>
<g transform="translate(682,899) scale(5.3216666666667)"><path d="M3,6L3,6C1.3,6,0,4.7,0,3V0h6v3C6,4.7,4.7,6,3,6z"/></g>
<g transform="translate(744,899) scale(5.3216666666667)"><rect width="6" height="6"/></g>
<g transform="translate(806,899) scale(5.3216666666667)"><rect width="6" height="6"/></g>
<g transform="translate(837,899) scale(5.3216666666667)"><path d="M3,6H0V0l6,0v3C6,4.7,4.7,6,3,6z"/></g>
<g transform="translate(899,899) scale(5.3216666666667)"><path d="M3,6L3,6C1.3,6,0,4.7,0,3V0h6v3C6,4.7,4.7,6,3,6z"/></g>
<g transform="translate(372,930) scale(5.3216666666667)"><path d="M3,6L3,6C1.3,6,0,4.7,0,3V0h6v3C6,4.7,4.7,6,3,6z"/></g>
<g transform="translate(465,930) scale(5.3216666666667)"><path d="M6,6H3C1.3,6,0,4.7,0,3v0c0-1.7,1.3-3,3-3h3C6,0,6,6,6,6z"/></g>
<g transform="translate(496,930) scale(5.3216666666667)"><path d="M3,6H0V0l3,0c1.7,0,3,1.3,3,3v0C6,4.7,4.7,6,3,6z"/></g>
<g transform="translate(558,930) scale(5.3216666666667)"><circle cx="3" cy="3" r="3"/></g>
<g transform="translate(620,930) scale(5.3216666666667)"><path d="M6,6H3C1.3,6,0,4.7,0,3V0l6,0V6z"/></g>
<g transform="translate(651,930) scale(5.3216666666667)"><path d="M3,6H0V0l3,0c1.7,0,3,1.3,3,3v0C6,4.7,4.7,6,3,6z"/></g>
<g transform="translate(744,930) scale(5.3216666666667)"><path d="M3,6L3,6C1.3,6,0,4.7,0,3V0h6v3C6,4.7,4.7,6,3,6z"/></g>
<g transform="translate(806,930) scale(5.3216666666667)"><path d="M3,6L3,6C1.3,6,0,4.7,0,3V0h6v3C6,4.7,4.7,6,3,6z"/></g>
<g transform="translate(868,930) scale(5.3216666666667)"><circle cx="3" cy="3" r="3"/></g>
</g><g><g transform="translate(62,62)" fill="#ffffff"><g transform="scale(15.5)"><path d="M4.5,14h5.1C12,14,14,12,14,9.6V4.5C14,2,12,0,9.5,0H4.4C2,0,0,2,0,4.4v5.1C0,12,2,14,4.5,14z M12,4.8v4.4 c0,1.5-1.3,2.8-2.8,2.8H4.8C3.2,12,2,10.8,2,9.2V4.8C2,3.3,3.3,2,4.8,2h4.4C10.8,2,12,3.2,12,4.8z"/></g></g>
<g transform="translate(744,62)" fill="#ffffff"><g transform="scale(15.5)"><path d="M4.5,14h5.1C12,14,14,12,14,9.6V4.5C14,2,12,0,9.5,0H4.4C2,0,0,2,0,4.4v5.1C0,12,2,14,4.5,14z M12,4.8v4.4 c0,1.5-1.3,2.8-2.8,2.8H4.8C3.2,12,2,10.8,2,9.2V4.8C2,3.3,3.3,2,4.8,2h4.4C10.8,2,12,3.2,12,4.8z"/></g></g>
<g transform="translate(62,744)" fill="#ffffff"><g transform="scale(15.5)"><path d="M4.5,14h5.1C12,14,14,12,14,9.6V4.5C14,2,12,0,9.5,0H4.4C2,0,0,2,0,4.4v5.1C0,12,2,14,4.5,14z M12,4.8v4.4 c0,1.5-1.3,2.8-2.8,2.8H4.8C3.2,12,2,10.8,2,9.2V4.8C2,3.3,3.3,2,4.8,2h4.4C10.8,2,12,3.2,12,4.8z"/></g></g>
<g transform="translate(124,124)" fill="#ffffff"><g transform="scale(15.5)"><path d="M6,1.7v2.7C6,5.2,5.2,6,4.3,6H1.7C0.7,6,0,5.3,0,4.3V1.7C0,0.8,0.8,0,1.7,0h2.7C5.3,0,6,0.7,6,1.7z"/></g></g>
<g transform="translate(806,124)" fill="#ffffff"><g transform="scale(15.5)"><path d="M6,1.7v2.7C6,5.2,5.2,6,4.3,6H1.7C0.7,6,0,5.3,0,4.3V1.7C0,0.8,0.8,0,1.7,0h2.7C5.3,0,6,0.7,6,1.7z"/></g></g>
<g transform="translate(124,806)" fill="#ffffff"><g transform="scale(15.5)"><path d="M6,1.7v2.7C6,5.2,5.2,6,4.3,6H1.7C0.7,6,0,5.3,0,4.3V1.7C0,0.8,0.8,0,1.7,0h2.7C5.3,0,6,0.7,6,1.7z"/></g></g></g></svg>
