<svg width="150" height="150" viewBox="0 0 150 150" fill="none" xmlns="http://www.w3.org/2000/svg">
<g clip-path="url(#clip0_547_2)">
<path d="M140.199 22.3297C115.019 22.2397 90.4094 33.1597 73.5694 51.7997C67.5094 58.0697 63.4694 65.7497 58.6094 72.8597C46.9694 88.7897 28.7994 97.9997 9.10938 97.9897V126.64C34.2794 126.74 58.8894 115.78 75.7394 97.1397C81.7694 90.8697 85.8694 83.1997 90.6994 76.0797C102.339 60.1697 120.509 50.9597 140.199 50.9697V22.3297Z" fill="white"/>
<path d="M140.203 97.9904C120.523 97.9904 102.343 88.7904 90.7028 72.8804C85.8928 65.7604 81.7828 58.1004 75.7628 51.8204C58.9528 33.1804 34.3028 22.2404 9.13281 22.3504V51.0004C30.9328 50.8904 51.1828 62.6204 62.1428 81.4604C65.3628 87.0804 69.2028 92.3604 73.5928 97.2004C90.4228 115.83 115.053 126.79 140.223 126.7L140.203 98.0004V97.9904Z" fill="white"/>
</g>
<defs>
<clipPath id="clip0_547_2">
<rect width="150" height="150" fill="white"/>
</clipPath>
</defs>
</svg>
